<?xml version="1.0" standalone="no"?>
<!DOCTYPE svg PUBLIC "-//W3C//DTD SVG 20010904//EN"
 "http://www.w3.org/TR/2001/REC-SVG-20010904/DTD/svg10.dtd">
<svg version="1.0" xmlns="http://www.w3.org/2000/svg"
 width="400.000000pt" height="400.000000pt" viewBox="0 0 400.000000 400.000000"
 preserveAspectRatio="xMidYMid meet">

<g transform="translate(0.000000,400.000000) scale(0.100000,-0.100000)"
fill="#000000" stroke="none">
<path d="M0 2000 l0 -2000 2000 0 2000 0 0 2000 0 2000 -2000 0 -2000 0 0
-2000z m2198 1930 c614 -48 1160 -418 1428 -966 100 -205 153 -412 169 -656
l7 -108 -30 0 -29 0 -7 108 c-26 414 -184 774 -467 1063 -293 299 -679 474
-1111 503 l-88 6 0 -103 0 -104 123 -13 c371 -38 672 -180 927 -439 247 -251
385 -560 406 -911 l7 -110 -391 0 -392 0 0 30 0 30 361 0 362 0 -7 83 c-25
297 -137 555 -345 797 l-30 35 -156 -155 c-130 -130 -158 -153 -172 -144 -9 6
-18 15 -20 21 -2 6 66 78 152 160 85 83 155 153 155 156 0 9 -137 118 -205
164 -190 128 -436 210 -684 229 l-91 7 0 -122 0 -121 -30 0 -30 0 0 285 0 285
33 0 c17 0 87 -5 155 -10z m-400 -296 c26 -18 28 -50 5 -76 -20 -22 -43 -23
-69 -3 -13 9 -44 14 -94 15 l-75 0 -130 -130 -130 -130 -82 0 -83 0 -110 -112
-110 -112 0 -95 0 -96 82 -82 83 -83 97 0 c98 0 98 0 98 -25 l0 -25 -107 0
-108 0 -97 97 -98 98 0 119 0 119 122 124 122 123 86 0 85 0 130 130 130 130
85 0 c59 1 91 5 104 15 25 19 36 19 64 -1z m-1052 -132 c58 -46 57 -131 -2
-163 l-24 -12 0 -271 0 -271 127 -127 128 -128 152 0 153 0 0 -25 0 -25 -162
0 -162 0 -148 148 -148 148 0 277 c0 186 -3 277 -10 277 -6 0 -22 12 -35 26
-56 61 -11 164 72 164 21 0 48 -8 59 -18z m1482 -361 c283 -109 375 -148 390
-168 18 -25 16 -426 -3 -516 -42 -200 -235 -401 -514 -536 -97 -47 -91 -47
-236 36 -248 142 -407 322 -444 501 -16 77 -15 516 2 530 9 7 573 227 595 231
2 1 96 -35 210 -78z m-1821 -19 c35 -22 49 -81 29 -120 -9 -17 -25 -36 -36
-42 -18 -10 -20 -21 -20 -138 l0 -127 187 -187 188 -188 262 0 263 0 0 -30 0
-30 -267 0 -267 0 -213 213 -213 213 0 130 c0 127 -1 131 -23 141 -30 14 -60
76 -51 106 8 28 43 67 69 77 24 10 61 2 92 -18z m-109 -818 l27 -34 94 0 95 0
77 -75 77 -75 306 0 306 0 0 -25 0 -26 -320 3 -320 3 -72 73 -73 72 -88 0
c-84 0 -88 -1 -97 -25 -10 -26 -57 -55 -90 -55 -29 0 -77 27 -90 49 -18 35
-12 87 15 120 43 50 111 48 153 -5z m2732 -698 l0 -393 -60 2 c-33 1 -63 5
-67 8 -3 4 -7 180 -9 392 l-2 385 69 0 69 0 0 -394z m720 329 l0 -65 -70 0
-70 0 0 65 0 65 70 0 70 0 0 -65z m-3005 -164 c94 -43 105 -78 105 -345 l0
-215 -237 2 c-219 2 -241 4 -273 22 -100 58 -105 246 -8 305 30 18 50 20 206
20 l172 0 0 34 c0 25 -7 40 -26 55 -25 19 -40 21 -191 21 l-165 0 7 43 c13 84
-4 77 193 77 150 0 183 -3 217 -19z m605 -46 l0 -65 -98 0 c-63 0 -102 -4
-110 -12 -9 -9 -12 -72 -12 -220 l0 -208 -24 0 c-13 0 -44 -3 -70 -6 l-46 -7
0 232 c0 256 3 269 62 315 39 29 60 33 196 35 l102 1 0 -65z m563 41 c21 -10
50 -35 65 -54 l27 -35 3 -231 3 -231 -239 1 c-264 1 -283 5 -321 69 -44 72
-32 186 24 242 l33 33 186 0 186 0 0 26 c0 15 -12 38 -29 55 l-29 29 -161 0
c-182 0 -169 -7 -154 83 l6 39 181 -4 c153 -2 187 -6 219 -22z m743 5 c23 -10
54 -36 70 -57 l29 -37 3 -231 3 -231 -239 2 c-251 1 -274 5 -313 49 -59 68
-44 217 27 273 25 20 39 21 205 21 l179 0 0 34 c0 25 -7 40 -26 55 -25 19 -40
21 -192 21 l-165 0 7 38 c3 20 6 47 6 60 l0 22 183 0 c156 0 188 -3 223 -19z
m765 -49 c-27 -31 -81 -88 -120 -127 -39 -38 -71 -73 -71 -78 0 -13 35 -54
156 -183 57 -61 102 -113 99 -115 -2 -2 -41 -3 -88 -1 l-85 3 -121 135 c-73
82 -121 143 -121 156 0 21 27 53 160 193 l76 80 82 -3 83 -4 -50 -56z m329
-216 l0 -284 -70 -4 -70 -3 0 288 0 287 70 0 70 0 0 -284z m-175 -493 c-196
-357 -552 -680 -923 -837 -401 -169 -888 -177 -1274 -22 -38 16 -61 20 -72 14
-23 -13 -54 -1 -72 27 -19 30 -11 60 22 82 31 20 69 6 85 -31 21 -46 292 -123
497 -141 l82 -7 0 93 0 94 -82 82 -83 83 -125 0 -125 0 -90 90 c-49 49 -97 90
-105 90 -50 0 -79 69 -44 104 38 39 104 5 104 -54 0 -17 22 -47 77 -102 l78
-78 124 0 124 0 98 -97 99 -97 0 -103 0 -103 73 0 c39 0 89 3 110 6 l37 7 0
95 0 95 -70 73 -70 72 0 79 0 79 -73 72 -72 72 -160 0 -160 0 -127 127 c-71
70 -128 133 -128 140 0 7 10 13 23 13 15 0 58 -36 137 -115 l115 -115 160 0
160 0 87 -87 88 -88 0 -80 0 -81 70 -69 70 -69 0 -103 c0 -121 -11 -114 135
-79 349 85 653 274 918 571 79 89 193 247 239 333 14 26 23 32 48 32 l32 0
-37 -67z m-2983 -32 c5 -80 4 -81 -63 -81 l-59 0 0 65 0 65 59 0 59 0 4 -49z
m238 -16 l0 -65 -60 0 -60 0 0 65 0 65 60 0 60 0 0 -65z m250 0 l0 -65 -65 0
-65 0 0 65 0 65 65 0 65 0 0 -65z m2140 21 c0 -39 -7 -53 -49 -104 -71 -85
-232 -233 -336 -307 -103 -74 -292 -172 -349 -182 -38 -6 -39 -5 -157 113
l-119 119 0 116 c0 103 -2 118 -20 134 -41 38 -15 115 39 115 64 0 98 -77 51
-117 -18 -15 -20 -30 -20 -123 l0 -105 103 -103 103 -103 55 21 c191 75 410
235 588 432 51 55 61 72 61 102 0 32 3 36 25 36 23 0 25 -4 25 -44z m-2625
-263 l1 -63 -63 0 -63 0 0 65 0 66 62 -3 61 -3 2 -62z m235 2 l0 -65 -60 0
-60 0 0 65 0 65 60 0 60 0 0 -65z m248 -2 l3 -63 -66 0 -65 0 0 65 0 66 63 -3
62 -3 3 -62z m-484 -210 c-1 -16 -2 -45 -3 -65 l-1 -38 -60 0 -60 0 0 65 0 65
63 0 c64 0 64 0 61 -27z m236 -38 l0 -65 -60 0 -60 0 0 65 0 65 60 0 60 0 0
-65z m248 3 l-3 -63 -62 -3 -63 -3 0 66 0 65 65 0 66 0 -3 -62z"/>
<path d="M657 3452 c-22 -25 -21 -45 3 -67 41 -37 102 24 64 66 -22 24 -46 24
-67 1z"/>
<path d="M1850 3094 c-91 -35 -214 -83 -273 -106 l-109 -42 4 -245 c3 -229 5
-250 27 -301 65 -155 208 -291 440 -418 l74 -41 81 41 c196 99 358 241 420
370 50 105 55 139 56 378 l0 216 -27 11 c-75 29 -500 192 -513 196 -8 3 -89
-24 -180 -59z m237 -219 c50 -21 72 -42 94 -90 32 -69 19 -143 -35 -203 l-33
-37 13 -105 c7 -58 15 -122 18 -142 l4 -38 -128 0 -129 0 5 33 c32 240 32 250
-6 293 -128 146 20 363 197 289z"/>
<path d="M1943 2803 c-60 -56 -53 -156 14 -195 31 -19 34 -24 29 -57 -3 -20
-8 -63 -11 -96 -3 -33 -8 -77 -11 -97 l-6 -38 61 0 c34 0 61 3 61 8 0 4 -7 63
-15 132 -14 116 -14 126 2 135 57 34 80 80 69 140 -11 59 -44 87 -107 93 -50
4 -57 1 -86 -25z"/>
<path d="M312 3078 c-15 -15 -15 -51 0 -66 28 -28 78 -7 78 33 0 27 -18 45
-45 45 -12 0 -26 -5 -33 -12z"/>
<path d="M186 2274 c-22 -21 -20 -47 5 -70 19 -17 23 -17 47 -3 32 17 39 50
17 73 -21 20 -49 21 -69 0z"/>
<path d="M396 1428 c-21 -30 -20 -51 3 -79 19 -23 24 -24 165 -24 l146 0 0 63
0 62 -149 0 c-144 0 -151 -1 -165 -22z"/>
<path d="M1560 1434 c-18 -21 -17 -72 3 -91 13 -13 43 -16 164 -17 l148 -1 3
63 3 62 -154 0 c-128 0 -157 -3 -167 -16z"/>
<path d="M2307 1432 c-22 -24 -21 -65 1 -85 16 -14 43 -17 165 -17 l147 0 0
60 0 60 -148 0 c-132 0 -151 -2 -165 -18z"/>
<path d="M2214 935 c-4 -9 -2 -21 4 -27 15 -15 44 -1 40 19 -4 23 -36 29 -44
8z"/>
</g>
</svg>
